<svg xmlns="http://www.w3.org/2000/svg" width="300" height="20" viewBox="0 0 700 20">
  <defs>
    <style>
      .cls-1, .cls-2, .cls-3, .cls-4 {
        fill: #fff;
      }

      .cls-2, .cls-4 {
        fill-rule: evenodd;
      }

      .cls-3, .cls-4 {
        opacity: 0.5;
      }
    </style>
  </defs>
  <title>status_bar</title>
  <g id="Layer_2" data-name="Layer 2">
    <g id="main">
      <g>
        <path class="cls-1" d="M508.77,17.27a11,11,0,0,1-.77-4.4c0-5.42,2.21-8.53,6.07-8.53a5,5,0,0,1,5.18,4.12h-2a3.16,3.16,0,0,0-3.17-2.37c-2.57,0-4,2.28-4.13,6.48h.17a4.53,4.53,0,0,1,4.2-2.43,5.06,5.06,0,0,1,5.19,5.28,5.28,5.28,0,0,1-5.54,5.44A5.4,5.4,0,0,1,508.77,17.27Zm8.72-1.78a3.57,3.57,0,1,0-7.14-.07,3.57,3.57,0,0,0,3.57,3.71A3.54,3.54,0,0,0,517.49,15.49Z"/>
        <path class="cls-1" d="M522.34,12.6c0-5.21,2.07-8.26,5.6-8.26s5.58,3.06,5.58,8.29-2,8.24-5.58,8.24S522.34,17.85,522.34,12.6Zm9.2,0c0-4.19-1.29-6.53-3.6-6.53s-3.62,2.36-3.62,6.53,1.29,6.55,3.62,6.55S531.54,16.83,531.54,12.6Z"/>
        <path class="cls-1" d="M539.23,12c-2,0-3.37-1.57-3.37-3.8s1.4-3.8,3.37-3.8,3.36,1.56,3.36,3.8S541.2,12,539.23,12ZM537,20.5l6-8.23,5.53-7.56h2l-6.13,8.38-5.42,7.41Zm3.8-12.26c0-1.48-.63-2.4-1.61-2.4s-1.62.94-1.62,2.4.64,2.4,1.62,2.4S540.84,9.68,540.84,8.24Zm7.52,12.53c-2,0-3.37-1.57-3.37-3.8s1.4-3.8,3.37-3.8,3.36,1.56,3.36,3.8S550.33,20.77,548.36,20.77ZM550,17c0-1.48-.62-2.4-1.61-2.4s-1.62.94-1.62,2.4.65,2.4,1.62,2.4S550,18.41,550,17Z"/>
      </g>
      <path class="cls-2" d="M488.63,17.36V11.68l2.72,3-2.72,2.7Zm2.85-11.22h0L488.63,9V3.57l2.85,2.57Zm-2.16,4.26h0l4.22-4.26L487.24,0h-.15V8.55L482.82,4,481.6,5.32l5.14,5.08-5.14,5.08,1.22,1.28,4.27-4.51V20.8h.27l6.24-6.16Z"/>
      <path class="cls-3" d="M600.8,21.6H567.2a5.6,5.6,0,0,1-5.6-5.6V6.4A5.6,5.6,0,0,1,567.2.8h33.6a5.6,5.6,0,0,1,5.6,5.6V16A5.6,5.6,0,0,1,600.8,21.6ZM567.2,2.4a4,4,0,0,0-4,4V16a4,4,0,0,0,4,4h33.6a4,4,0,0,0,4-4V6.4a4,4,0,0,0-4-4Z"/>
      <path class="cls-2" d="M566.4,4h24V18.4h-24a1.6,1.6,0,0,1-1.6-1.6V5.6A1.6,1.6,0,0,1,566.4,4Z"/>
      <path class="cls-4" d="M608,7.2a2.39,2.39,0,0,1,2.4,2.4v3.2a2.39,2.39,0,0,1-2.4,2.4Z"/>
      <path class="cls-2" d="M171.19,6.57a15.65,15.65,0,0,1,10.13,3.69l1.88-2a17.88,17.88,0,0,0-24,0l1.88,2a15.66,15.66,0,0,1,10.11-3.68Zm0,4.8a9.49,9.49,0,0,0-6.08,2.18l-2-2.15a12.35,12.35,0,0,1,16.15,0l-2,2.15a9.51,9.51,0,0,0-6.09-2.19Zm4.1,4.15h0a6.28,6.28,0,0,0-8.19,0L171.19,20Z"/>
      <g>
        <path class="cls-1" d="M38.18,20.1V4.6h5.93c2.84,0,4.58,1.49,4.58,3.87A3.42,3.42,0,0,1,46,11.81V12a3.67,3.67,0,0,1,3.46,3.77c0,2.73-2,4.35-5.25,4.35Zm1.93-8.82h3.1c2.34,0,3.53-.84,3.53-2.48s-1.12-2.49-3-2.49H40.11Zm3.83,7.11c2.33,0,3.55-.94,3.55-2.74s-1.27-2.71-3.74-2.71H40.11v5.45Z"/>
        <path class="cls-1" d="M62.24,20.1h-9.6V4.6h9.6V6.34H54.57v5h7.27V13H54.57v5.33h7.67Z"/>
        <path class="cls-1" d="M65.31,18.72,74.09,6.51V6.34H65.61V4.6h11V6L67.86,18.19v.17h8.91V20.1H65.31Z"/>
        <path class="cls-1" d="M89.71,20.1H80.3V4.6h1.93V18.36h7.48Z"/>
        <path class="cls-1" d="M92.79,20.1V4.6h1.93V20.1Z"/>
        <path class="cls-1" d="M112.15,20.1V8.26H112L107.13,20H105.5L100.61,8.26h-.13V20.1h-1.8V4.6h2.24l5.31,12.82h.17L111.71,4.6H114V20.1Z"/>
        <path class="cls-1" d="M117.91,20.1V4.6h1.93V20.1Z"/>
        <path class="cls-1" d="M127.82,20.1V6.34h-5V4.6h11.92V6.34h-5V20.1Z"/>
      </g>
      <g>
        <path class="cls-1" d="M265.79,16.3h2.43a2.86,2.86,0,0,0,2.89,2c2.37,0,3.76-2.15,3.8-5.89h-.18a4.34,4.34,0,0,1-4.06,2.35,5,5,0,0,1-5.11-5.16,5.31,5.31,0,0,1,5.62-5.42,5.37,5.37,0,0,1,5.09,3.2,10.36,10.36,0,0,1,1,4.72c0,5.25-2.27,8.34-6.14,8.34A5.1,5.1,0,0,1,265.79,16.3Zm8.67-6.7a3.25,3.25,0,0,0-6.5,0,3.25,3.25,0,0,0,6.5,0Z"/>
        <path class="cls-1" d="M280.47,10.57a1.58,1.58,0,1,1,1.58,1.6A1.56,1.56,0,0,1,280.47,10.57Zm0,8.11a1.58,1.58,0,1,1,1.58,1.6A1.56,1.56,0,0,1,280.47,18.68Z"/>
        <path class="cls-1" d="M294.05,17.1h-7.56V14.87c1.39-2.54,3.7-6.14,6.46-10.27h3.42V15h2.14V17.1h-2.14v3h-2.32ZM288.8,15h5.28V6.71H294c-1.54,2.23-3.32,5-5.15,8.15Z"/>
        <path class="cls-1" d="M304.91,7.19h-.18l-3.89,2.75V7.48l4.08-2.88h2.4V20.1h-2.41Z"/>
        <path class="cls-1" d="M326.72,16h-5.91l-1.43,4.12h-2.47l5.6-15.5h2.59l5.59,15.5h-2.55Zm-5.3-2h4.69l-2.25-6.56h-.18Z"/>
        <path class="cls-1" d="M346.84,20.1V8.91h-.15l-4.54,10.74h-1.83L335.78,8.91h-.15V20.1h-2.24V4.6h2.82l4.93,11.77h.18L346.26,4.6h2.81V20.1Z"/>
      </g>
      <path class="cls-2" d="M26,2.8h1.6a2,2,0,0,1,2,2V19.2a2,2,0,0,1-2,2H26a2,2,0,0,1-2-2V4.8a2,2,0,0,1,2-2Zm-8,4h1.6a2,2,0,0,1,2,2V19.2a2,2,0,0,1-2,2H18a2,2,0,0,1-2-2V8.8a2,2,0,0,1,2-2Zm-8,4h1.6a2,2,0,0,1,2,2v6.4a2,2,0,0,1-2,2H10a2,2,0,0,1-2-2V12.8a2,2,0,0,1,2-2ZM2,13.2H3.6a2,2,0,0,1,2,2v4a2,2,0,0,1-2,2H2a2,2,0,0,1-2-2v-4A2,2,0,0,1,2,13.2Z"/>
    </g>
  </g>
</svg>
