<?xml version="1.0" encoding="iso-8859-1"?>
<!-- Generator: Adobe Illustrator 22.1.0, SVG Export Plug-In . SVG Version: 6.00 Build 0)  -->
<svg version="1.1" id="Layer_1" xmlns="http://www.w3.org/2000/svg" xmlns:xlink="http://www.w3.org/1999/xlink" x="0px" y="0px"
	 viewBox="0 0 324.018 122.579" style="enable-background:new 0 0 324.018 122.579;" xml:space="preserve">
<g>
	<path style="fill-rule:evenodd;clip-rule:evenodd;fill:#EEE0AB;" d="M30.829,26.971h8.9c0.779,0,1.416,0.639,1.416,1.42
		c0,0.781-0.641,1.42-1.416,1.42h-8.9c-0.776,0-1.416-0.639-1.416-1.42C29.413,27.61,30.05,26.971,30.829,26.971z M35.279,0
		c-2.36,3.9-5.12,5.193-5.12,10.379c0,4.313,1.967,10.224,5.12,14.776c3.152-4.552,5.12-10.463,5.12-14.776
		C40.399,5.193,37.639,3.9,35.279,0z M47.035,24.817c0.094-5.337-6.364-3.974-7.412-0.061c-0.249,0.93-1.503,0.763-1.327-0.221
		c0.5-2.79,2.926-6.748,5.302-8.076C48.668,13.629,54.688,20.854,47.035,24.817z M58.768,34.219c-2.99-1.192-3.853,3.223,0.27,3.346
		C57.798,36.79,57.322,35.104,58.768,34.219z M70.519,29.777c0.64-3.786-6.725-6.896-8.22,0.832
		c-0.624,3.229,1.375,7.074-0.884,8.052c-1.698,0.735-5.522-0.386-7.114-1.265c-1.14-0.629-2.912-1.936-4.134-2.155
		c-2.16-0.389-3.946,0.437-6.025,0.414c-3.518-0.038-4.94-1.037-5.743-4.301c-0.227-0.923-1.55-0.728-1.939,0.662
		c-0.256,0.915-0.231,1.493-0.108,2.42c0.387,2.921,2.57,2.91,5.199,3.042c5.654,0.284,11.847,0.986,16.858,2.264
		c2.972,0.758,7.043,0.634,6.378-3.531C64.155,32.25,65.504,27.609,70.519,29.777z M54.427,34.753
		c-2.958-2.251-1.854-6.359,1.891-6.111c3.775,0.25,4.522,3.976,4.731,7c-0.229-0.469-0.382-0.947-0.501-1.424
		C59.731,30.919,54.452,31.498,54.427,34.753z M23.523,24.817c-7.653-3.963-1.632-11.188,3.436-8.358
		c2.377,1.327,4.802,5.285,5.302,8.076c0.176,0.984-1.077,1.151-1.327,0.221C29.887,20.843,23.428,19.48,23.523,24.817z
		 M11.79,34.219c2.99-1.192,3.853,3.223-0.27,3.346C12.76,36.79,13.236,35.104,11.79,34.219z M0.039,29.777
		c5.015-2.168,6.364,2.473,5.731,6.434c-0.665,4.166,3.406,4.29,6.378,3.531c5.012-1.278,11.204-1.98,16.858-2.264
		c2.629-0.132,4.812-0.121,5.199-3.042c0.123-0.928,0.148-1.505-0.108-2.42c-0.389-1.39-1.712-1.585-1.939-0.662
		c-0.803,3.264-2.225,4.263-5.743,4.301c-2.079,0.022-3.865-0.803-6.025-0.414c-1.222,0.22-2.994,1.526-4.134,2.155
		c-1.592,0.879-5.416,2-7.114,1.265c-2.26-0.979-0.26-4.823-0.885-8.052C6.764,22.881-0.601,25.991,0.039,29.777z M16.131,34.753
		c2.958-2.251,1.854-6.359-1.891-6.111c-3.775,0.25-4.522,3.976-4.731,7c0.229-0.469,0.382-0.947,0.501-1.424
		C10.827,30.919,16.106,31.498,16.131,34.753z M2.895,77.481c-0.642-8.863-0.474-17.824-0.437-26.711
		c18.526-7.454,47.118-7.454,65.644,0c0.036,8.887,0.204,17.848-0.437,26.711c-1.78,24.568-13.384,32.612-32.384,45.097
		C16.278,110.093,4.674,102.05,2.895,77.481z M6.273,53.472C6.241,61.379,6.14,69.314,6.711,77.205
		c1.588,21.92,11.365,29.49,28.568,40.795c17.202-11.305,26.98-18.876,28.568-40.795c0.572-7.891,0.47-15.826,0.439-23.733
		C49.362,47.598,21.197,47.598,6.273,53.472z M67.156,47.778c-18.023-6.951-45.731-6.951-63.753,0
		c-1.768,0.682-1.895-2.354-0.237-3.002c18.102-7.073,46.125-7.073,64.227,0C69.05,45.424,68.923,48.46,67.156,47.778z"/>
	<path style="fill-rule:evenodd;clip-rule:evenodd;fill:#EEE0AB;" d="M12.846,66.847c-0.235-1.469,0.635-3.346,2.603-2.994
		c3.176,0,0.514-2.572,2.742-3.76c0.826-0.44,1.821-0.225,2.591,0.365c4.434,0.727,6.78,6.657,3.241,11.028
		c-0.455,0.562-0.828,1.103-1.12,1.618c1.383-0.892,3.656,0.096,2.273,2.177c-0.058-1.358-1.692-1.721-2.135-0.568
		c1.34,0.08,1.768,2.011,0.168,2.626c0.007-0.424,0.083-1.179-0.609-1.277c-1.356-0.194-1.507,2.184-0.858,2.711
		c0.476-1.407,3.324-1.193,3.722,0.56c0.373,1.644-1.25,3.111-2.715,1.683c1.36,0.089,1.633-1.699,0.523-1.532
		c-1.231,0.185-0.734,2.627,0.517,3.668c1.314,1.093,3.29,1.204,4.879,0.341c0.881-1.424,2.667-1.843,3.195-4.155
		c-1.195,0.027-1.441-0.574-1.402-1.64c0.419,0.29,0.707,0.508,1.22,0.361c0.996-0.287,0.082-1.587-0.82-2.089
		c-0.22-0.181-0.391-0.32-0.56-0.619c-1.426-0.916-1.902-2.095-1.083-3.548c-0.43,0.17-0.626,0.376-0.792,0.593
		c-0.281-0.569-0.347-1.047-0.067-1.702c-2.052-3.641,0.73-3.44-0.034-5.503c-0.136-0.367-0.182-0.759-0.044-1.126
		c-0.449,0.242-0.662,0.711-0.797,1.171c-0.165-1.438-0.168-2.741,1.365-3.598c-0.638-0.506-0.856-0.999-0.961-1.6
		c0.51,0.199,1.323,0.348,1.795,0.316c-0.045-0.232-0.118-0.422-0.201-0.589c0.525,0.049,1.082,0.058,1.576,0.072
		c-0.211-0.996-0.713-1.409-1.225-1.79c0.928-0.202,2.134-0.478,3.369,0.719c-0.327-0.765-0.849-0.984-1.206-1.232
		c0.769-0.028,2.234-0.214,3.103,0.97c-0.018-0.328-0.122-0.577-0.255-0.91c0.558-0.056,3.72,0.114,2.877,1.206
		c1.145,0.373,2.959,0.238,2.461,1.774c0.885-0.286,2.371-0.39,3.109,0.362c0.736-0.153,1.997-0.162,1.443,1.132
		c-0.214-0.025-0.504-0.069-0.65-0.115c0.045,0.087,0.226,0.426,0.449,0.588c0.223,0.162,0.361,1.313-0.652,1.337
		c-0.117,0.424-0.33,0.8-0.811,1.017c0.127-0.284,0.327-0.865-0.16-1.109c-0.576-0.288-1.105-0.656-1.534-0.158
		c-0.428,0.497-1.373,1.38-0.945,1.922c0.429,0.543,1.261,0.34,1.129-0.542c0.279,0.159,0.537,0.448,0.493,0.701
		c0.689,0.202,1.729,1.069-0.493,3.053c-0.164-0.495-0.607-1.458-1.896-1.515c-0.314-0.014-0.856-0.084-0.879-0.029
		c-0.273,0.654-1.021,1.607-0.168,2.022c0.626,0.305,1.283-0.514,2.26-0.16c0.738,0.268,0.117,1.276,2.054,1.644
		c0.723-2.026,2.889-2.88,4.449-3.463c1.334-0.499,1.905-1.602,0.772-2.667c-0.898-0.845-1.54-1.599-0.566-2.671
		c0.186-0.438,0.733-0.532,1.544-0.471c-0.402,0.312-0.307,0.422-0.239,0.595c0.461,0.345,0.751,0.796,0.631,1.359
		c0.041,0.179,0.116,0.467,0.273,0.671c0.393,0.513,1.021-0.642,0.599-1.514c-0.57-1.177-0.243-2.6,1.228-2.198
		c0.551-0.398,1.263,0.155,1.6,0.557c-1.512-0.201-0.08,0.789-0.954,1.626c-0.327,0.421-0.479,0.704-0.457,0.846
		c0.028,0.165,0.396,0.094,0.655-0.055c0.352-0.204,1.886-1.717,2.524-0.636c0.09,0.153,0.122,0.368,0.122,0.632
		c0.587,0.148,0.549,0.705,0.361,1.461c-0.172-0.328-0.313-0.387-0.557-0.185c-0.423,0.703-1.038,0.887-1.844,0.432
		c-0.626,0.646-0.62,1.193,0.123,1.702c0.625-0.194,1.063,0.141,1.349,0.725c0.197,0.157,0.308,0.24,0.642-0.094
		c-0.2,0.649-0.239,1.175-1.008,1.361c-2.281,1.142-1.562-1.111-2.798-0.625c-0.601,0.566-0.157,1.193,0.234,1.706
		c-0.452,0.332-0.892,0.423-1.473-0.291c-0.044,0.678,0.168,0.953,0.442,1.406c-0.506-0.013-0.948-0.042-1.379-0.461
		c0,0.95,0.892,1.778,0.972,1.88c-0.479,0.02-0.777,0.112-1.361-0.27c0.169,0.367,0.377,0.538,0.475,0.652
		c-0.407,0.093-0.851,0.199-1.331-0.042c-0.843,0.651-0.972,1.306-1.13,1.317c0.217,0.218,0.391,0.853,0.928,0.88
		c1.886,0.094,2.111,1.417,2.181,2.029c-0.417-0.323-1.178-1.223-2.613-0.79c0.416,1.035,1.05,0.826,1.469,0.803
		c-0.253,0.753-0.994,0.887-1.776,0.75c1.871,1.796,5.103,4.492,6.839,2.447c0.656-1.321,1.73-1.373,2.317-0.951
		c0.553-0.009,0.727,0.379,0.797,1.149c-0.873-0.709-0.648,0.817-1.888,0.835c-0.799,0.379-0.659,0.589-0.518,0.693
		c0.95,0.705,1.459-0.796,2.948-0.609c0.561,0.07,0.737,0.506,0.685,1.064c0.352,0.249,0.325,0.806-0.182,1.406
		c-0.029-0.871-0.393-0.642-0.608-0.427c-1.024,0.477-1.044-0.178-1.848-0.203c-0.23-0.007-0.181,0.166-0.045,0.443
		c0.349,0.441,1.881,1.334,1.066,2.119c-0.169,0.163-0.39,0.216-0.585,0.25c-0.117,0.41-0.552,0.463-1.285,0.455
		c0.157-0.033,0.282-0.162,0.075-0.367c-0.646-0.205-0.899-0.635-0.736-1.274c-0.52-0.364-1.073-0.46-1.677-0.201
		c-0.103,0.557-0.566,0.836-1.117,0.945c-0.128,0.207-0.048,0.304,0.294,0.464c-0.559,0.086-1.218,0.125-1.426-0.329
		c-1.082-0.449-1.228-1.147-1.115-1.702c0.143-0.705,0.691-1.2-0.297-1.111c-0.725,0.065-1.069,0.751-1.275,1.348
		c-0.25-0.121-0.359-0.23-0.508-0.589c-0.408,0.005-0.708-0.105-0.909-0.325c-1.17-0.162-1.743-0.77-1.458-1.891
		c-0.47,0.161-0.687,0.518-0.903,0.895c-0.633,0.011-1.182-0.143-1.774-0.91c-1.264,2.539-5.841,2.271-7.593,3.896
		c0.131,1.722,1.871,0.295,4.421,0.587c3.315,0.38,1.887,2.256,3.156,2.913c1.188,0.615,0.299,2.223,1.505,2.128
		c1.375-0.108,2.116-2.061,0.172-2.521c0.816-0.179,1.348-0.24,1.87,0.061c0.631,0.365,0.339,1.157,0.549,1.491
		c0.4-0.267,0.282-1.659,2.075-1.555c1.796,0.104,0.553,2.318,1.205,2.796c0.502,0.367,0.419-1.2,1.835-0.17
		c-1.307,0.083-0.67,1.114-2.3,0.823c-1.081-0.193-0.103-2.366-1.9-1.814c0.035,1.289-0.594,1.973-1.888,2.054
		c0.92,0.513,0.73,1.224,0.705,1.722c-1.039-1.061-1.023-0.517-1.999-0.82c-0.321-0.105-0.552-0.273-0.692-0.512
		c-0.567-0.043-0.916-0.135-1.26-0.263c-0.013,0.287-0.26,0.508-0.492,0.674c1.307,1.359,1.068,2.885,3.352,3.879
		c0.443,0.074,0.742,0.394,0.916,0.802c0.639,0.307-0.144-0.945,0.771-1.894c0.365-0.379,0.939-0.384,1.38-0.176
		c0.478-0.034,0.756,0.201,1.093,0.88c-1.096-0.524-0.103,1.135-1.26,1.138c0,0.261-0.17,0.438-0.4,0.559
		c0.12,0.306,0.403,0.44,0.731,0.486c0.31-0.359,1.75-0.78,1.63,0.696c0.713,0.403,0.366,1.056-0.068,1.606
		c0-0.515-0.26-0.543-0.488-0.435c-0.538,0.591-1.82,0.325-1.749-0.439c-0.247-0.261-0.816-0.211-1.17-0.148
		c0.016,0.325-0.187,0.592-0.457,0.778c0.201,0.609-0.142,1.292-0.206,1.501c-0.26-0.908-0.569-0.854-0.913-1.06
		c-1.381,0.38-1.991-0.37-1.724-1.252c-0.349,0.162-0.763,0.147-1.139,0.076c0.034,0.348,0.237,0.571,0.331,0.741
		c-0.774-0.338-1.483-0.576-1.441-1.496c-0.335-0.237-0.7-0.804-0.56-1.302c-0.879-0.362-0.512-1.356-1.073-1.816
		c-1.119,1.36-1.963,1.21-2.817,0.864c0.558-0.175,1.021-0.242,1.198-1.043c-0.389-0.002-0.651-0.753-0.797-0.779
		c-0.103,0.271,0.061,1.097-0.995,1.233c-1.419,0.183-0.755-1.846-1.55-2.489c1.374-0.163,1.447,0.896,1.571,0.904
		c0.147,0.008,0.205-1.044,1.043-0.943c0.726,0.088,1.078,1.079,1.089,0.516c0.019-0.975-0.911-1.151-1.228-1.999
		c-0.559-0.016-0.934-0.256-0.996-0.81c-0.58-0.184-1.161-0.495-1.341-1.077c-0.407,0.038-0.77-0.036-1.068-0.321
		c-1.009,2.953-3.942,3.91-4.132,4.315c-0.099,0.21,0.158,0.513,0.311,0.719c2.243-0.67,3.82,1.024,1.748,2.763
		c-0.556,0.467-0.656,0.838,0.079,0.862c1.801,0.058,1.915,2.065,0.15,2.747c0.737-2.64-1.102-0.876-2.045-2.021
		c-0.323-0.393-0.314-0.989-0.227-1.493c-1.03,0.193-1.404-0.379-1.62-1.262c0.866,0.912,1.61,0.133,0.797-0.583
		c-0.495-0.437-0.961-1.003-1.076-1.65c-0.495-0.064-0.896-0.24-1.2-0.528c-0.317-0.088-0.617-0.026-0.892,0.151
		c-0.162,1.121-1.773,1.726-1.296,3.116c0.453,1.321,2.016-0.629,2.86,0.797c1.178,0.164,1.208,1.314,1.177,1.934
		c-0.533-0.795-0.923-0.61-1.223-0.685c-0.058,0.26-0.224,0.443-0.462,0.547c0.025,0.206-0.019,0.437-0.078,0.637
		c0.528,0.627,0.17,1.478,0.037,1.854c-0.198-0.665-0.426-0.833-0.818-0.964c-0.643,0.27-1.418,0.461-1.817-0.116
		c-0.171,0.08-0.383,0.128-0.63,0.142c-0.26,0.346-0.509,0.498-0.74,0.673c0.081-0.269,0.158-0.56,0.077-0.878
		c-1.541-0.33-1.741-1.275-1.118-2.136c-0.058-0.286-0.207-0.493-0.497-0.527c-0.335,0.253-0.828,0.294-1.246,0.276
		c-0.22,0.35-0.2,0.666-0.177,0.986c-0.42-0.493-0.887-1.041-0.649-1.744c-0.379-0.945,0.168-2.446,1.726-2.433
		c0.18-1.168-1.671-1.898-0.471-3.424c0.453-0.376,0.928-0.858,0.434-1.568c-0.315-0.198-0.631-0.178-0.959,0.018
		c-0.258,1.356-2.378,1.007-2.061-0.34c-1.526-0.18-0.198-2.688-0.803-2.78c-0.464-0.071-0.813,0.367-1.035,0.756
		c0.062-1.63,0.572-1.994,0.806-2.077c2.295-0.814,0.835,4.133,2.629,2.658c0.621-1.126,1.261-0.046,2.217-0.07
		c0.054-0.855-0.608-1.172-1.36-1.349c1.373-1.166,2.858-0.26,2.637,1.683c0.547,0.056,0.855,0.371,1.073,0.85
		c0.609-0.373,1.27-0.437,1.951-0.262c0.15-0.286,0.373-0.495,0.661-0.626c0.142-1.953,2.563-2.442,1.702-2.833
		c-5.945-0.315-7.975-4.368-7.616-10.38c-0.893,0.142-1.498-0.153-2.049-0.525c-1.173-0.792-1.084-3.771,0.355-4.283
		c1.547-0.551,2.63,0.428,2.052,2.008c-1.466-1.321-2.147,0.272-1.299,1.043c1.353,1.23,4.669-1.905,1.551-4.174
		c0.498-0.132,1.734-0.487,2.224,0.583c0.591-1.575-1.205-3.02-2.646-1.88c-0.018-0.545,0.129-1.608,1.621-1.757
		c0.836-0.083,1.544,0.145,2.242,0.951c-0.313-1.502-0.885-3.235-2.53-1.773c-0.163-0.272-0.253-1.094-0.162-1.408
		c0.264-0.902,1.771-0.671,2.524-0.083c-0.639-1.289-1.756-1.948-2.676-1.931c-0.753,0.398-0.681,1.071-0.606,1.839
		c0.325,3.318-1.788,3.344-3.415,1.5c-0.82-0.375-2.164-0.625-2.482,0.115c-0.497,1.157,0.551,2.201,1.303,2.744
		C14.804,68.587,13.109,68.49,12.846,66.847z M39.423,60.808c-0.414-0.596-1.492-0.425-1.976-0.027
		C38.352,60.911,39.022,61.49,39.423,60.808z"/>
</g>
<path style="fill-rule:evenodd;clip-rule:evenodd;fill:#EEE0AB;" d="M106.817,72.268c0-2.557-0.63-4.668-3.094-5.835l-7.092-3.355
	v27.393h5.564c3.994,0,4.622-1.122,4.622-5.041V72.268z M96.631,56.212l8.475,4.253c5.077,2.547,8.557,5.778,8.557,11.803v13.463
	c0,4.87-1.768,10.914-7.636,10.914H89.784v-64.45h22.668l1.211,9.627c-1.211-2.004-2.76-3.456-6.189-3.456H96.631V56.212z
	 M126.831,77.346v8.084c0,3.919,0.628,5.041,4.62,5.041h10.756l-0.448,6.174h-14.14c-5.873,0-7.636-6.06-7.636-10.931V58.826
	c0-4.871,1.763-10.929,7.636-10.929h7.686c5.861,0,7.684,6.052,7.684,10.929C142.99,69.396,135.843,70.731,126.831,77.346z
	 M126.831,69.939c5.731-4.194,9.264-4.382,9.264-11.112c0-3.848-0.598-5.246-4.625-5.246c-4.042,0-4.638,1.384-4.638,5.246V69.939z
	 M147.61,96.645l-0.436-6.174h8.527c3.437,0,4.622-1.772,4.622-5.041v-6.703c0-2.082-0.453-3.996-2.91-3.996h-7.307v-5.787h6.621
	c2.313,0,2.707-2.16,2.707-4.047v-5.782c0-3.899-0.632-5.047-4.623-5.047h-7.344l0.433-6.17h10.694c5.923,0,7.682,5.987,7.682,10.91
	v5.499c0,2.505-0.296,5.925-2.806,7.252c3.099,1.191,3.749,4.569,3.749,7.523v6.632c0,4.882-1.819,10.931-7.686,10.931H147.61z
	 M197.467,96.645h-6.893V53.968c-5.715,0-8.574,7.397-8.574,13.85v28.827h-6.846c0-9.603,0-19.206,0-28.81
	c0-10.825,5.788-19.937,15.419-19.937h6.893V96.645z M213.173,96.645h-6.84V47.898h6.84v11.803l8.475-7.168v-4.635h6.893v48.747
	h-6.893V60.549l-8.475,7.269V96.645z M262.629,96.645h-6.844V62.081l-5.751,7.269l-5.768-7.269v34.564h-6.844V47.898h6.844v4.635
	l5.768,7.168l5.751-7.168v-4.635h6.844V96.645z M278.35,96.645h-6.845V47.898h6.845v11.803l8.475-7.168v-4.635h6.894v48.747h-6.894
	V60.549l-8.475,7.269V96.645z M323.566,47.898l0.452,6.17h-9.317v42.577h-6.843V54.068h-9.17l0.36-6.17H323.566z"/>
<g>
	<path style="fill-rule:evenodd;clip-rule:evenodd;fill:#EEE0AB;" d="M95.386,112.048c0,0.185-0.33,0.187-0.518,0.187
		c-0.194,0-0.518-0.006-0.518-0.187V105.3h-3.529v6.747c0,0.185-0.329,0.187-0.518,0.187c-0.193,0-0.518-0.004-0.518-0.187v-7.227
		c0-0.282,0.154-0.422,0.374-0.422h4.866c0.219,0,0.362,0.132,0.362,0.422V112.048z"/>
	<path style="fill-rule:evenodd;clip-rule:evenodd;fill:#EEE0AB;" d="M103.356,106.684c0,1.481-0.95,2.552-2.867,2.552h-0.884v2.805
		c0,0.186-0.332,0.193-0.518,0.193c-0.202,0-0.518-0.012-0.518-0.193v-7.196c0-0.301,0.183-0.446,0.409-0.446h1.668
		C102.531,104.4,103.356,105.378,103.356,106.684z M102.27,106.767c0-0.922-0.511-1.516-1.707-1.516h-0.958v3.134h0.936
		C101.706,108.385,102.27,107.706,102.27,106.767z"/>
	<path style="fill-rule:evenodd;clip-rule:evenodd;fill:#EEE0AB;" d="M110.402,111.768c0,0.186-0.025,0.43-0.212,0.43h-3.745
		c-0.211,0-0.386-0.13-0.386-0.421v-6.955c0-0.294,0.178-0.422,0.386-0.422h3.702c0.184,0,0.206,0.257,0.206,0.44
		c0,0.186-0.028,0.424-0.206,0.424h-3.052v2.443h2.62c0.186,0,0.206,0.249,0.206,0.434c0,0.187-0.018,0.405-0.206,0.405h-2.62v2.789
		h3.095C110.382,111.334,110.402,111.576,110.402,111.768z"/>
	<path style="fill-rule:evenodd;clip-rule:evenodd;fill:#EEE0AB;" d="M121.677,112.042c0,0.186-0.331,0.193-0.521,0.193
		c-0.188,0-0.516-0.006-0.516-0.193v-6.793h-0.012l-2.746,6.824c-0.056,0.159-0.336,0.163-0.506,0.163
		c-0.16,0-0.456-0.013-0.506-0.163l-2.628-6.824h-0.006v6.793c0,0.186-0.331,0.193-0.526,0.193c-0.21,0-0.51-0.007-0.51-0.193
		v-7.171c0-0.317,0.191-0.471,0.434-0.471h0.637c0.528,0,0.761,0.19,0.911,0.634l2.231,5.647h0.031l2.316-5.631
		c0.2-0.527,0.442-0.65,0.802-0.65h0.668c0.29,0,0.447,0.189,0.447,0.471V112.042z"/>
	<path style="fill-rule:evenodd;clip-rule:evenodd;fill:#EEE0AB;" d="M130.714,112.048c0,0.184-0.31,0.187-0.52,0.187
		c-0.203,0-0.516-0.002-0.516-0.187v-5.117c0-0.23,0.007-0.525,0.025-0.755h-0.012c-0.162,0.285-0.318,0.524-0.493,0.802
		l-3.373,5.075c-0.121,0.162-0.22,0.181-0.5,0.181c-0.205,0-0.458-0.005-0.458-0.206v-7.48c0-0.182,0.334-0.187,0.518-0.187
		c0.197,0,0.518,0.003,0.518,0.187v5.148c0,0.297,0.002,0.463-0.025,0.711h0.012c0.272-0.431,0.32-0.53,0.499-0.79l3.367-5.082
		c0.108-0.153,0.267-0.175,0.498-0.175c0.195,0,0.461,0.007,0.461,0.2V112.048z"/>
	<path style="fill-rule:evenodd;clip-rule:evenodd;fill:#EEE0AB;" d="M139.737,111.832c0.134,0.383,0.006,0.403-0.452,0.403
		c-0.353,0-0.516,0.007-0.602-0.187l-0.668-1.898h-3.241l-0.639,1.873c-0.072,0.212-0.288,0.212-0.572,0.212
		c-0.428,0-0.575-0.031-0.434-0.409l2.614-7.245c0.082-0.224,0.328-0.218,0.67-0.218c0.323,0,0.631-0.012,0.709,0.222
		L139.737,111.832L139.737,111.832z M136.381,105.436h-0.006l-1.343,3.887h2.71L136.381,105.436z"/>
	<path style="fill-rule:evenodd;clip-rule:evenodd;fill:#EEE0AB;" d="M147.608,112.048c0,0.185-0.331,0.187-0.518,0.187
		c-0.193,0-0.518-0.004-0.518-0.187v-6.76h-2.184c-0.157,1.345-0.368,2.995-0.67,4.298c-0.16,0.702-0.417,1.595-0.895,2.135
		c-0.314,0.356-0.73,0.576-1.439,0.576c-0.22,0-0.253-0.228-0.253-0.448c0-0.13,0.007-0.421,0.117-0.49
		c0.177-0.109,0.732,0.205,1.228-1.154c0.482-1.301,0.783-3.966,0.926-5.341c0.034-0.274,0.11-0.465,0.385-0.465h3.461
		c0.252,0,0.362,0.171,0.362,0.422V112.048z"/>
	<path style="fill-rule:evenodd;clip-rule:evenodd;fill:#EEE0AB;" d="M156.002,109.763c0,1.411-0.865,2.435-3.07,2.435h-1.721
		c-0.265,0-0.403-0.189-0.403-0.421v-7.227c0-0.177,0.327-0.187,0.518-0.187c0.187,0,0.518,0.002,0.518,0.187v2.922h1.174
		C155.174,107.472,156.002,108.406,156.002,109.763z M154.928,109.856c0-1.241-0.851-1.532-2.001-1.532h-1.084v3.011h1.158
		C154.12,111.334,154.928,110.975,154.928,109.856z"/>
	<path style="fill-rule:evenodd;clip-rule:evenodd;fill:#EEE0AB;" d="M164.093,112.042c0,0.187-0.327,0.193-0.514,0.193
		c-0.194,0-0.522-0.008-0.522-0.193v-3.459h-3.541v3.459c0,0.188-0.328,0.193-0.518,0.193c-0.195,0-0.518-0.011-0.518-0.193v-7.486
		c0-0.188,0.329-0.193,0.518-0.193c0.188,0,0.518,0.005,0.518,0.193v3.126h3.541v-3.126c0-0.185,0.324-0.193,0.522-0.193
		c0.187,0,0.514,0.006,0.514,0.193V112.042z"/>
	<path style="fill-rule:evenodd;clip-rule:evenodd;fill:#EEE0AB;" d="M174.611,112.048c0,0.185-0.33,0.187-0.518,0.187
		c-0.191,0-0.518-0.006-0.518-0.187v-7.498c0-0.177,0.327-0.187,0.518-0.187c0.186,0,0.518,0.002,0.518,0.187V112.048z
		 M172.365,109.769c0,1.376-0.862,2.429-3.052,2.429h-1.626c-0.272,0-0.405-0.196-0.405-0.421v-7.227
		c0-0.177,0.327-0.187,0.518-0.187c0.187,0,0.518,0.002,0.518,0.187v2.947h1.08C171.558,107.497,172.365,108.469,172.365,109.769z
		 M171.292,109.866c0-1.184-0.814-1.518-1.984-1.518h-0.989v2.998h1.061C170.767,111.347,171.292,110.751,171.292,109.866z"/>
	<path style="fill-rule:evenodd;clip-rule:evenodd;fill:#EEE0AB;" d="M197.892,111.1c0,0.242-0.017,0.358-0.15,0.492
		c-0.303,0.301-1.188,0.705-2.203,0.705c-2.259,0-3.311-1.651-3.311-3.895c0-2.308,1.177-4.101,3.435-4.101
		c0.672,0,1.643,0.265,2.026,0.648c0.105,0.101,0.179,0.169,0.179,0.545c0,0.169-0.017,0.461-0.187,0.461
		c-0.241,0-0.747-0.753-2.034-0.753c-1.641,0-2.32,1.499-2.32,3.139c0,1.691,0.657,3.044,2.346,3.044
		c0.631,0,1.183-0.17,1.812-0.625C197.848,110.5,197.892,110.689,197.892,111.1z"/>
	<path style="fill-rule:evenodd;clip-rule:evenodd;fill:#EEE0AB;" d="M206.906,108.208c0,2.439-1.114,4.101-3.562,4.101
		c-2.452,0-3.41-1.554-3.41-3.967c0-2.423,1.146-4.054,3.568-4.054C205.888,104.289,206.906,105.794,206.906,108.208z
		 M205.808,108.28c0-1.794-0.576-3.103-2.369-3.103c-1.724,0-2.406,1.349-2.406,3.091c0,1.831,0.533,3.14,2.363,3.14
		C205.15,111.408,205.808,110.055,205.808,108.28z"/>
	<path style="fill-rule:evenodd;clip-rule:evenodd;fill:#EEE0AB;" d="M214.261,104.844c0,0.185-0.019,0.432-0.204,0.432h-2.19v6.766
		c0,0.187-0.329,0.193-0.518,0.193c-0.189,0-0.518-0.006-0.518-0.193v-6.766h-2.19c-0.179,0-0.203-0.25-0.203-0.432
		c0-0.183,0.024-0.444,0.203-0.444h5.417C214.244,104.4,214.261,104.657,214.261,104.844z"/>
	<path style="fill-rule:evenodd;clip-rule:evenodd;fill:#EEE0AB;" d="M222.741,108.208c0,2.432-1.11,4.101-3.562,4.101
		c-2.434,0-3.41-1.533-3.41-3.967c0-2.423,1.146-4.054,3.568-4.054C221.74,104.289,222.741,105.813,222.741,108.208z
		 M221.643,108.28c0-1.794-0.576-3.103-2.369-3.103c-1.724,0-2.406,1.349-2.406,3.091c0,1.831,0.533,3.14,2.363,3.14
		C220.985,111.408,221.643,110.055,221.643,108.28z"/>
	<path style="fill-rule:evenodd;clip-rule:evenodd;fill:#EEE0AB;" d="M230.645,109.963c0,1.208-0.783,1.961-1.939,2.172
		c-0.537,0.102-2.92,0.064-2.82,0.064c-0.211,0-0.386-0.13-0.386-0.421v-6.955c0-0.293,0.177-0.422,0.386-0.422h1.773
		c1.843,0,2.492,0.823,2.492,1.97c0,0.747-0.359,1.367-1.038,1.658C230.053,108.208,230.645,108.991,230.645,109.963z
		 M229.091,106.471c0-0.93-0.564-1.232-1.483-1.232h-1.072v2.53h1.18C228.649,107.768,229.091,107.228,229.091,106.471z
		 M229.559,110.024c0-0.862-0.5-1.429-1.783-1.429h-1.24v2.752h1.505C229.052,111.347,229.559,110.78,229.559,110.024z"/>
	<path style="fill-rule:evenodd;clip-rule:evenodd;fill:#EEE0AB;" d="M240.657,112.048c0,0.185-0.314,0.187-0.518,0.187
		c-0.193,0-0.518-0.002-0.518-0.187v-7.498c0-0.18,0.331-0.187,0.518-0.187c0.199,0,0.518,0.004,0.518,0.187V112.048z
		 M238.411,109.769c0,1.396-0.853,2.429-3.052,2.429h-1.627c-0.26,0-0.405-0.181-0.405-0.421v-7.227c0-0.18,0.33-0.187,0.518-0.187
		c0.186,0,0.518,0.002,0.518,0.187v2.947h1.08C237.605,107.497,238.411,108.469,238.411,109.769z M237.338,109.866
		c0-1.17-0.815-1.518-1.984-1.518h-0.989v2.998h1.061C236.814,111.347,237.338,110.751,237.338,109.866z"/>
	<path style="fill-rule:evenodd;clip-rule:evenodd;fill:#EEE0AB;" d="M249.69,112.048c0,0.184-0.311,0.187-0.52,0.187
		c-0.201,0-0.516-0.001-0.516-0.187v-5.117c0-0.229,0.007-0.523,0.025-0.755h-0.012c-0.164,0.288-0.34,0.559-0.493,0.802
		l-3.373,5.075c-0.121,0.162-0.221,0.181-0.5,0.181c-0.205,0-0.458-0.005-0.458-0.206v-7.48c0-0.18,0.33-0.187,0.518-0.187
		c0.197,0,0.518,0.003,0.518,0.187v5.148c0,0.301,0.001,0.468-0.025,0.711h0.012c0.27-0.428,0.321-0.531,0.5-0.79l3.367-5.082
		c0.109-0.153,0.268-0.175,0.498-0.175c0.195,0,0.461,0.007,0.461,0.2V112.048z M248.678,102.37c0,1.046-0.788,1.561-1.851,1.561
		c-1.098,0-1.851-0.52-1.851-1.561c0-0.2,0.203-0.216,0.477-0.216c0.273,0,0.436,0.019,0.436,0.253c0,0.41,0.337,0.796,0.946,0.796
		c0.525,0,0.929-0.313,0.929-0.821c0-0.209,0.176-0.228,0.42-0.228C248.418,102.154,248.678,102.159,248.678,102.37z"/>
	<path style="fill-rule:evenodd;clip-rule:evenodd;fill:#EEE0AB;" d="M265.258,108.208c0,2.423-1.103,4.101-3.562,4.101
		c-2.426,0-3.41-1.522-3.41-3.967c0-2.451,1.172-4.054,3.568-4.054C264.252,104.289,265.258,105.808,265.258,108.208z
		 M264.16,108.28c0-1.793-0.576-3.103-2.369-3.103c-1.739,0-2.406,1.362-2.406,3.091c0,1.84,0.539,3.14,2.363,3.14
		C263.51,111.408,264.16,110.042,264.16,108.28z"/>
	<path style="fill-rule:evenodd;clip-rule:evenodd;fill:#EEE0AB;" d="M273.619,112.048c0,0.185-0.314,0.187-0.518,0.187
		c-0.192,0-0.518-0.003-0.518-0.187V105.3h-3.529v6.747c0,0.185-0.329,0.187-0.518,0.187c-0.202,0-0.518-0.002-0.518-0.187v-7.227
		c0-0.282,0.154-0.422,0.374-0.422h4.866c0.219,0,0.362,0.132,0.362,0.422V112.048z"/>
	<path style="fill-rule:evenodd;clip-rule:evenodd;fill:#EEE0AB;" d="M281.145,111.768c0,0.182-0.023,0.43-0.212,0.43h-3.745
		c-0.211,0-0.386-0.13-0.386-0.421v-6.955c0-0.293,0.177-0.422,0.386-0.422h3.702c0.184,0,0.206,0.257,0.206,0.44
		c0,0.186-0.028,0.424-0.206,0.424h-3.052v2.443h2.62c0.186,0,0.205,0.249,0.205,0.434c0,0.187-0.018,0.405-0.205,0.405h-2.62v2.789
		h3.095C281.125,111.334,281.145,111.576,281.145,111.768z"/>
	<path style="fill-rule:evenodd;clip-rule:evenodd;fill:#EEE0AB;" d="M288.73,106.684c0,1.47-0.94,2.552-2.867,2.552h-0.884v2.805
		c0,0.186-0.332,0.193-0.518,0.193c-0.189,0-0.518-0.006-0.518-0.193v-7.196c0-0.299,0.181-0.446,0.409-0.446h1.668
		C287.894,104.4,288.73,105.368,288.73,106.684z M287.644,106.767c0-1.059-0.639-1.516-1.707-1.516h-0.958v3.134h0.936
		C287.071,108.385,287.644,107.717,287.644,106.767z"/>
	<path style="fill-rule:evenodd;clip-rule:evenodd;fill:#EEE0AB;" d="M296.591,111.832c0.137,0.392-0.008,0.403-0.452,0.403
		c-0.469,0-0.531-0.027-0.602-0.187l-0.668-1.898h-3.241l-0.639,1.873c-0.073,0.218-0.297,0.212-0.572,0.212
		c-0.422,0-0.577-0.026-0.434-0.409l2.614-7.245c0.081-0.223,0.328-0.218,0.67-0.218c0.311,0,0.63-0.016,0.71,0.222L296.591,111.832
		L296.591,111.832z M293.234,105.436h-0.006l-1.343,3.887h2.711L293.234,105.436z"/>
	<path style="fill-rule:evenodd;clip-rule:evenodd;fill:#EEE0AB;" d="M303.123,104.844c0,0.185-0.018,0.432-0.204,0.432h-2.19v6.766
		c0,0.188-0.329,0.193-0.518,0.193c-0.194,0-0.518-0.011-0.518-0.193v-6.766h-2.19c-0.18,0-0.204-0.25-0.204-0.432
		c0-0.181,0.024-0.444,0.204-0.444h5.417C303.106,104.4,303.123,104.657,303.123,104.844z"/>
	<path style="fill-rule:evenodd;clip-rule:evenodd;fill:#EEE0AB;" d="M311.603,108.208c0,2.432-1.11,4.101-3.562,4.101
		c-2.434,0-3.41-1.533-3.41-3.967c0-2.423,1.146-4.054,3.568-4.054C310.601,104.289,311.603,105.813,311.603,108.208z
		 M310.505,108.28c0-1.793-0.576-3.103-2.369-3.103c-1.724,0-2.406,1.349-2.406,3.091c0,1.83,0.533,3.14,2.363,3.14
		C309.846,111.408,310.505,110.055,310.505,108.28z"/>
	<path style="fill-rule:evenodd;clip-rule:evenodd;fill:#EEE0AB;" d="M319.149,106.684c0,1.47-0.939,2.552-2.867,2.552h-0.884v2.805
		c0,0.186-0.332,0.193-0.518,0.193c-0.202,0-0.518-0.012-0.518-0.193v-7.196c0-0.299,0.181-0.446,0.409-0.446h1.668
		C318.327,104.4,319.149,105.381,319.149,106.684z M318.063,106.767c0-1.065-0.646-1.516-1.707-1.516h-0.958v3.134h0.936
		C317.481,108.385,318.063,107.725,318.063,106.767z"/>
	<path style="fill-rule:evenodd;clip-rule:evenodd;fill:#EEE0AB;" d="M183.644,112.048c0,0.184-0.311,0.187-0.521,0.187
		c-0.201,0-0.516-0.001-0.516-0.187v-5.117c0-0.229,0.007-0.523,0.025-0.755h-0.012c-0.164,0.288-0.34,0.559-0.493,0.802
		l-3.373,5.075c-0.121,0.162-0.221,0.181-0.5,0.181c-0.205,0-0.458-0.005-0.458-0.206v-7.48c0-0.18,0.33-0.187,0.518-0.187
		c0.197,0,0.518,0.003,0.518,0.187v5.148c0,0.301,0.001,0.468-0.025,0.711h0.013c0.27-0.428,0.321-0.531,0.499-0.79l3.367-5.082
		c0.109-0.153,0.268-0.175,0.498-0.175c0.195,0,0.461,0.007,0.461,0.2V112.048z M182.632,102.37c0,1.046-0.788,1.561-1.851,1.561
		c-1.098,0-1.851-0.52-1.851-1.561c0-0.2,0.203-0.216,0.477-0.216c0.273,0,0.436,0.019,0.436,0.253c0,0.41,0.337,0.796,0.946,0.796
		c0.525,0,0.929-0.313,0.929-0.821c0-0.209,0.176-0.228,0.42-0.228C182.372,102.154,182.632,102.159,182.632,102.37z"/>
</g>
</svg>
